<svg width="1942" xmlns="http://www.w3.org/2000/svg" height="528" id="screenshot-c104b184-2eb3-808b-8008-2e0700e2e4f5" viewBox="0 0 1942 528" xmlns:xlink="http://www.w3.org/1999/xlink" fill="none" version="1.1"><g id="shape-c104b184-2eb3-808b-8008-2e0700e2e4f5" rx="0" ry="0"><g id="shape-c104b184-2eb3-808b-8008-2ceb079dda13"><g class="fills" id="fills-c104b184-2eb3-808b-8008-2ceb079dda13"><rect rx="167" ry="167" x="0" y="0" transform="matrix(1.000000, 0.000000, 0.000000, 1.000000, 0.000000, 0.000000)" width="1942.000000000001" height="528" style="fill: rgb(255, 255, 255);"/></g></g><g id="shape-c104b184-2eb3-808b-8008-2ceb079dda16"><g class="fills" id="fills-c104b184-2eb3-808b-8008-2ceb079dda16"><rect rx="0" ry="0" x="742" y="198" transform="matrix(-1.000000, 0.000000, 0.000000, 1.000000, 1519.000000, -0.000000)" width="35" height="226" style="fill: rgb(0, 0, 0);"/></g></g><g id="shape-c104b184-2eb3-808b-8008-2ceb079dda17"><g class="fills" id="fills-c104b184-2eb3-808b-8008-2ceb079dda17"><rect rx="0" ry="0" x="1158" y="233" transform="matrix(1.000000, 0.000000, 0.000000, 1.000000, 0.000000, 0.000000)" width="35" height="191" style="fill: rgb(0, 0, 0);"/></g></g><g id="shape-c104b184-2eb3-808b-8008-2ceb079dda18"><g class="fills" id="fills-c104b184-2eb3-808b-8008-2ceb079dda18"><rect rx="0" ry="0" x="1193" y="389" transform="matrix(1.000000, 0.000000, 0.000000, 1.000000, 0.000000, 0.000000)" width="95" height="35" style="fill: rgb(0, 0, 0);"/></g></g><g id="shape-c104b184-2eb3-808b-8008-2ceb079dda19"><g class="fills" id="fills-c104b184-2eb3-808b-8008-2ceb079dda19"><rect rx="0" ry="0" x="1288" y="233" transform="matrix(1.000000, 0.000000, 0.000000, 1.000000, 0.000000, 0.000000)" width="35" height="191" style="fill: rgb(0, 0, 0);"/></g></g><g id="shape-c104b184-2eb3-808b-8008-2ceb079dda1a"><g class="fills" id="fills-c104b184-2eb3-808b-8008-2ceb079dda1a"><rect rx="0" ry="0" x="1392" y="198" transform="matrix(1.000000, 0.000000, 0.000000, 1.000000, 0.000000, 0.000000)" width="35" height="226" style="fill: rgb(0, 0, 0);"/></g></g><g id="shape-c104b184-2eb3-808b-8008-2ceb079dda1b"><g class="fills" id="fills-c104b184-2eb3-808b-8008-2ceb079dda1b"><rect rx="0" ry="0" x="1357" y="233" transform="matrix(1.000000, 0.000000, 0.000000, 1.000000, 0.000000, 0.000000)" width="105" height="35" style="fill: rgb(0, 0, 0);"/></g></g><g id="shape-c104b184-2eb3-808b-8008-2ceb079dda1c"><g class="fills" id="fills-c104b184-2eb3-808b-8008-2ceb079dda1c"><rect rx="0" ry="0" x="1427" y="389" transform="matrix(1.000000, 0.000000, 0.000000, 1.000000, 0.000000, 0.000000)" width="35" height="35" style="fill: rgb(0, 0, 0);"/></g></g><g id="shape-c104b184-2eb3-808b-8008-2ceb079dda20"><g class="fills" id="fills-c104b184-2eb3-808b-8008-2ceb079dda20"><path d="M947.39990234375,185.06982421875C956.79931640625,169.60009765625,979.19970703125,169.60009765625,988.59912109375,185.06982421875L994.49951171875,194.919921875C998.79931640625,201.97998046875,1006.29931640625,206.35986328125,1014.59912109375,206.52001953125L1026.09912109375,206.740234375C1044.09912109375,207.080078125,1055.39990234375,226.509765625,1046.59912109375,242.330078125L1041.09912109375,252.39990234375C1037.09912109375,259.6201171875,1037.09912109375,268.3798828125,1041.09912109375,275.60009765625L1046.59912109375,285.669921875C1055.39990234375,301.490234375,1044.09912109375,320.919921875,1026.09912109375,321.259765625L1014.59912109375,321.47998046875C1006.29931640625,321.64013671875,998.79931640625,326.02001953125,994.49951171875,333.080078125L988.59912109375,342.93017578125C979.19970703125,358.39990234375,956.79931640625,358.39990234375,947.39990234375,342.93017578125L941.49951171875,333.080078125C937.19970703125,326.02001953125,929.69970703125,321.64013671875,921.39990234375,321.47998046875L909.89990234375,321.259765625C891.89990234375,320.919921875,880.59912109375,301.490234375,889.39990234375,285.669921875L894.89990234375,275.60009765625C898.89990234375,268.3798828125,898.89990234375,259.6201171875,894.89990234375,252.39990234375L889.39990234375,242.330078125C880.59912109375,226.509765625,891.89990234375,207.080078125,909.89990234375,206.740234375L921.39990234375,206.52001953125C929.69970703125,206.35986328125,937.19970703125,201.97998046875,941.49951171875,194.919921875L947.39990234375,185.06982421875Z" style="fill: rgb(0, 0, 0);"/></g></g><g id="shape-c104b184-2eb3-808b-8008-2ceb079dda21"><g class="fills" id="fills-c104b184-2eb3-808b-8008-2ceb079dda21"><path d="M1630,181.14013671875C1639.5,166.830078125,1660.5,166.830078125,1670,181.14013671875L1684.2001953125,202.60986328125C1687.400390625,207.419921875,1692.2001953125,210.91015625,1697.7998046875,212.4599609375L1722.599609375,219.3798828125C1739.2001953125,223.97998046875,1745.7001953125,243.9599609375,1735,257.41015625L1719,277.60009765625C1715.400390625,282.1201171875,1713.5,287.77001953125,1713.7998046875,293.5400390625L1714.900390625,319.27978515625C1715.599609375,336.43994140625,1698.599609375,348.77978515625,1682.5,342.7900390625L1658.400390625,333.7900390625C1653,331.77978515625,1647,331.77978515625,1641.599609375,333.7900390625L1617.5,342.7900390625C1601.400390625,348.77978515625,1584.400390625,336.43017578125,1585.099609375,319.27978515625L1586.2001953125,293.5400390625C1586.5,287.77001953125,1584.599609375,282.1201171875,1581,277.60009765625L1565,257.41015625C1554.2998046875,243.9599609375,1560.7998046875,223.97998046875,1577.400390625,219.3798828125L1602.2001953125,212.4599609375C1607.7998046875,210.91015625,1612.599609375,207.419921875,1615.7998046875,202.60986328125L1630,181.14013671875Z" style="fill: rgb(0, 0, 0);"/></g></g><g id="shape-c104b184-2eb3-808b-8008-2ceb079dda22"><g class="fills" id="fills-c104b184-2eb3-808b-8008-2ceb079dda22"><rect rx="0" ry="0" x="742" y="128" transform="matrix(1.000000, 0.000000, 0.000000, 1.000000, 0.000000, 0.000000)" width="35" height="35" style="fill: rgb(0, 0, 0);"/></g></g><g id="shape-05152e2a-cc86-8030-8008-2e046c151e1c"><g class="fills" id="fills-05152e2a-cc86-8030-8008-2e046c151e1c"><rect rx="0" ry="0" x="475" y="198" transform="matrix(-1.000000, 0.000000, 0.000000, 1.000000, 985.000000, -0.000000)" width="35" height="226" style="fill: rgb(0, 0, 0);"/></g></g><g id="shape-05152e2a-cc86-8030-8008-2e046c151e1d"><g class="fills" id="fills-05152e2a-cc86-8030-8008-2e046c151e1d"><rect rx="0" ry="0" x="475" y="128" transform="matrix(1.000000, 0.000000, 0.000000, 1.000000, 0.000000, 0.000000)" width="35" height="35" style="fill: rgb(0, 0, 0);"/></g></g><g id="shape-c104b184-2eb3-808b-8008-2ceb344a139c"><g class="fills" id="fills-c104b184-2eb3-808b-8008-2ceb344a139c"><ellipse cx="968.5000000000002" cy="263.5" rx="160.50000000000023" ry="160.5" transform="matrix(1.000000, 0.000000, 0.000000, 1.000000, 0.000000, 0.000000)"/></g><g id="strokes-6cca7f6f-93bf-80dd-8008-30b46fa6965f-c104b184-2eb3-808b-8008-2ceb344a139c" class="strokes"><g class="inner-stroke-shape" transform="matrix(1.000000, 0.000000, 0.000000, 1.000000, 0.000000, 0.000000)"><defs><clipPath id="inner-stroke-render-15-c104b184-2eb3-808b-8008-2ceb344a139c-0"><use href="#stroke-shape-render-15-c104b184-2eb3-808b-8008-2ceb344a139c-0"/></clipPath><ellipse cx="968.5000000000002" cy="263.5" rx="160.50000000000023" ry="160.5" id="stroke-shape-render-15-c104b184-2eb3-808b-8008-2ceb344a139c-0" style="fill: none; stroke-width: 78; stroke: rgb(0, 0, 0); stroke-opacity: 1;"/></defs><use href="#stroke-shape-render-15-c104b184-2eb3-808b-8008-2ceb344a139c-0" clip-path="url('#inner-stroke-render-15-c104b184-2eb3-808b-8008-2ceb344a139c-0')"/></g></g></g><g id="shape-c104b184-2eb3-808b-8008-2ceb94fa57aa"><g class="fills" id="fills-c104b184-2eb3-808b-8008-2ceb94fa57aa"><ellipse cx="1653.5000000000002" cy="266.5" rx="160.50000000000023" ry="160.5" transform="matrix(1.000000, 0.000000, 0.000000, 1.000000, 0.000000, 0.000000)"/></g><g id="strokes-6cca7f6f-93bf-80dd-8008-30b46fa7522b-c104b184-2eb3-808b-8008-2ceb94fa57aa" class="strokes"><g class="inner-stroke-shape" transform="matrix(1.000000, 0.000000, 0.000000, 1.000000, 0.000000, 0.000000)"><defs><clipPath id="inner-stroke-render-16-c104b184-2eb3-808b-8008-2ceb94fa57aa-0"><use href="#stroke-shape-render-16-c104b184-2eb3-808b-8008-2ceb94fa57aa-0"/></clipPath><ellipse cx="1653.5000000000002" cy="266.5" rx="160.50000000000023" ry="160.5" id="stroke-shape-render-16-c104b184-2eb3-808b-8008-2ceb94fa57aa-0" style="fill: none; stroke-width: 78; stroke: rgb(0, 0, 0); stroke-opacity: 1;"/></defs><use href="#stroke-shape-render-16-c104b184-2eb3-808b-8008-2ceb94fa57aa-0" clip-path="url('#inner-stroke-render-16-c104b184-2eb3-808b-8008-2ceb94fa57aa-0')"/></g></g></g><g id="shape-c104b184-2eb3-808b-8008-2ceb079dda15"><g class="fills" id="fills-c104b184-2eb3-808b-8008-2ceb079dda15"><path d="M1653.5,106C1742.031982421875,106,1814,177.792236328125,1814,266.5C1814,355.207763671875,1742.031982421875,427,1653.5,427C1564.968017578125,427,1493,355.207763671875,1493,266.5C1493,177.792236328125,1564.968017578125,106,1653.5,106Z"/></g><g id="strokes-6cca7f6f-93bf-80dd-8008-30b46fa7c5dd-c104b184-2eb3-808b-8008-2ceb079dda15" class="strokes"><g class="inner-stroke-shape"><defs><clipPath id="inner-stroke-render-17-c104b184-2eb3-808b-8008-2ceb079dda15-0"><use href="#stroke-shape-render-17-c104b184-2eb3-808b-8008-2ceb079dda15-0"/></clipPath><path d="M1653.5,106C1742.031982421875,106,1814,177.792236328125,1814,266.5C1814,355.207763671875,1742.031982421875,427,1653.5,427C1564.968017578125,427,1493,355.207763671875,1493,266.5C1493,177.792236328125,1564.968017578125,106,1653.5,106Z" id="stroke-shape-render-17-c104b184-2eb3-808b-8008-2ceb079dda15-0" style="fill: none; stroke-width: 78; stroke: rgb(0, 0, 0); stroke-opacity: 0.3;"/></defs><use href="#stroke-shape-render-17-c104b184-2eb3-808b-8008-2ceb079dda15-0" clip-path="url('#inner-stroke-render-17-c104b184-2eb3-808b-8008-2ceb079dda15-0')"/></g></g></g><g id="shape-05152e2a-cc86-8030-8008-2e046093bea1"><g class="fills" id="fills-05152e2a-cc86-8030-8008-2e046093bea1"><rect rx="0" ry="0" x="543" y="233" transform="matrix(1.000000, 0.000000, 0.000000, 1.000000, 0.000000, 0.000000)" width="35" height="191" style="fill: rgb(0, 0, 0);"/></g></g><g id="shape-05152e2a-cc86-8030-8008-2e046093bea2"><g class="fills" id="fills-05152e2a-cc86-8030-8008-2e046093bea2"><rect rx="0" ry="0" x="578" y="233" transform="matrix(1.000000, 0.000000, 0.000000, 1.000000, 0.000000, 0.000000)" width="95" height="35" style="fill: rgb(0, 0, 0);"/></g></g><g id="shape-05152e2a-cc86-8030-8008-2e046093bea3"><g class="fills" id="fills-05152e2a-cc86-8030-8008-2e046093bea3"><rect rx="0" ry="0" x="673" y="233" transform="matrix(1.000000, 0.000000, 0.000000, 1.000000, 0.000000, 0.000000)" width="35" height="191" style="fill: rgb(0, 0, 0);"/></g></g><g id="shape-c104b184-2eb3-808b-8008-2e06019c0664"><g class="fills" id="fills-c104b184-2eb3-808b-8008-2e06019c0664"><rect rx="0" ry="0" x="147" y="233" transform="matrix(1.000000, 0.000000, 0.000000, 1.000000, 0.000000, 0.000000)" width="35" height="191" style="fill: rgb(0, 0, 0);"/></g></g><g id="shape-c104b184-2eb3-808b-8008-2e06019c0665"><g class="fills" id="fills-c104b184-2eb3-808b-8008-2e06019c0665"><rect rx="0" ry="0" x="182" y="233" transform="matrix(1.000000, 0.000000, 0.000000, 1.000000, 0.000000, 0.000000)" width="95" height="35" style="fill: rgb(0, 0, 0);"/></g></g><g id="shape-c104b184-2eb3-808b-8008-2e06019c0666"><g class="fills" id="fills-c104b184-2eb3-808b-8008-2e06019c0666"><rect rx="0" ry="0" x="277" y="233" transform="matrix(1.000000, 0.000000, 0.000000, 1.000000, 0.000000, 0.000000)" width="35" height="191" style="fill: rgb(0, 0, 0);"/></g></g><g id="shape-c104b184-2eb3-808b-8008-2e0605750fd3"><g class="fills" id="fills-c104b184-2eb3-808b-8008-2e0605750fd3"><rect rx="0" ry="0" x="312" y="233" transform="matrix(1.000000, 0.000000, 0.000000, 1.000000, 0.000000, 0.000000)" width="95" height="35" style="fill: rgb(0, 0, 0);"/></g></g><g id="shape-c104b184-2eb3-808b-8008-2e0605750fd4"><g class="fills" id="fills-c104b184-2eb3-808b-8008-2e0605750fd4"><rect rx="0" ry="0" x="407" y="268" transform="matrix(1.000000, 0.000000, 0.000000, 1.000000, 0.000000, 0.000000)" width="35" height="156" style="fill: rgb(0, 0, 0);"/></g></g></g></svg>